# xmcd CD database file
#
# Track frame offsets:
#	150
#	14927
#	40453
#	62948
#	98584
#	121426
#	150944
#	184652
#	213790
#	218340
#	238433
#	255730
#
# Disc length: 3760 seconds
#
# Revision: 0
# Processed by: cddbd v1.5.1PL0 Copyright (c) Steve Scherf et al.
# Submitted via: CDex 1.51
#
DISCID=a70eae0c
DTITLE=Tom Waits - In Antwerpen 2004 Disc 2
DYEAR=2004
DGENRE=Blues
TTITLE0=November
TTITLE1=Kommeniezuspadt
TTITLE2=Jockey Full of Bourbon
TTITLE3=Murder in the Red Barn
TTITLE4=Trampled Rose
TTITLE5=Metropolitan Glide
TTITLE6=Day After Tomorrow
TTITLE7=Shake It
TTITLE8=Encore
TTITLE9=Singapore
TTITLE10=Encore
TTITLE11=Alice
EXTD=YEAR: 2004
EXTT0=
EXTT1=
EXTT2=
EXTT3=
EXTT4=
EXTT5=
EXTT6=
EXTT7=
EXTT8=
EXTT9=
EXTT10=
EXTT11=
PLAYORDER=
